PathFileType	4	(X/Y/Z)	RBDS027static.trc
DataRate	CameraRate	NumFrames	NumMarkers	Units	OrigDataRate	OrigDataStartFrame	OrigNumFrames
150.000000	150.000000	4	48	mm	150.000000	112	150
Frame#	Time	L.Ankle			L.Ankle.Medial			L.ASIS			L.GTR			L.Heel.Bottom			L.Heel.Lateral			L.Heel.Top			L.HF			L.Iliac.Crest			L.Knee			L.Knee.Medial			L.MT1			L.MT2			L.MT5			L.PSIS			L.Shank.Bottom.Lateral			L.Shank.Bottom.Medial			L.Shank.Top.Lateral			L.Shank.Top.Medial			L.Thigh.Bottom.Lateral			L.Thigh.Bottom.Medial			L.Thigh.Top.Lateral			L.Thigh.Top.Medial			L.TT			R.Ankle			R.Ankle.Medial			R.ASIS			R.GTR			R.Heel.Bottom			R.Heel.Lateral			R.Heel.Top			R.HF			R.Iliac.Crest			R.Knee			R.Knee.Medial			R.MT1			R.MT2			R.MT5			R.PSIS			R.Shank.Bottom.Lateral			R.Shank.Bottom.Medial			R.Shank.Top.Lateral			R.Shank.Top.Medial			R.Thigh.Bottom.Lateral			R.Thigh.Bottom.Medial			R.Thigh.Top.Lateral			R.Thigh.Top.Medial			R.TT			
		X1	Y1	Z1	X2	Y2	Z2	X3	Y3	Z3	X4	Y4	Z4	X5	Y5	Z5	X6	Y6	Z6	X7	Y7	Z7	X8	Y8	Z8	X9	Y9	Z9	X10	Y10	Z10	X11	Y11	Z11	X12	Y12	Z12	X13	Y13	Z13	X14	Y14	Z14	X15	Y15	Z15	X16	Y16	Z16	X17	Y17	Z17	X18	Y18	Z18	X19	Y19	Z19	X20	Y20	Z20	X21	Y21	Z21	X22	Y22	Z22	X23	Y23	Z23	X24	Y24	Z24	X25	Y25	Z25	X26	Y26	Z26	X27	Y27	Z27	X28	Y28	Z28	X29	Y29	Z29	X30	Y30	Z30	X31	Y31	Z31	X32	Y32	Z32	X33	Y33	Z33	X34	Y34	Z34	X35	Y35	Z35	X36	Y36	Z36	X37	Y37	Z37	X38	Y38	Z38	X39	Y39	Z39	X40	Y40	Z40	X41	Y41	Z41	X42	Y42	Z42	X43	Y43	Z43	X44	Y44	Z44	X45	Y45	Z45	X46	Y46	Z46	X47	Y47	Z47	X48	Y48	Z48	

113	0.7466666666666667	711.1040649414063	96.05545806884766	1045.826293945313	728.5616455078125	101.0527572631836	1125.4111328125	809.7611694335938	920.8480224609375	1084.098754882813	740.5421752929688	835.0552368164063	1043.86181640625	637.1785278320313	33.12860107421875	1083.918090820313	669.26513671875	55.1533203125	1040.871337890625	649.5305786132813	81.84235382080078	1086.374633789063	701.401611328125	417.8078918457031	1036.138793945313	753.5972290039063	993.7116088867188	1061.004638671875	713.303955078125	475.0335998535156	1046.3173828125	705.026123046875	462.5674438476563	1167.537841796875	852.9775390625	52.74181365966797	1128.142944335938	860.764892578125	65.23399353027344	1082.532592773438	821.6725463867188	48.46857070922852	1017.619934082031	656.2722778320313	953.1995849609375	1179.376953125	695.4518432617188	160.7107086181641	1035.737548828125	660.1237182617188	154.7985382080078	1078.3447265625	671.4605102539063	237.2332916259766	1028.291381835938	640.8827514648438	233.2961120605469	1072.80078125	703.0860595703125	587.0966796875	1027.542724609375	651.1957397460938	585.581787109375	1076.984130859375	698.4513549804688	697.1763305664063	1030.095703125	651.7059936523438	696.115234375	1079.995849609375	760.2426147460938	396.9712829589844	1087.7470703125	708.9104614257813	97.00231170654297	1405.301513671875	732.7276000976563	111.0711288452148	1328.540893554688	827.5757446289063	928.9647827148438	1351.5556640625	759.1064453125	842.18359375	1403.377197265625	640.00634765625	37.55924606323242	1369.737060546875	672.6542358398438	55.16028594970703	1410.905395507813	649.18359375	82.74766540527344	1369.713745117188	725.419677734375	427.6387634277344	1418.711303710938	772.8958129882813	1006.532165527344	1373.24951171875	724.191650390625	488.4830322265625	1409.854858398438	719.4141235351563	471.0865478515625	1290.093505859375	852.8872680664063	51.60712051391602	1316.768920898438	860.30224609375	67.68043518066406	1366.864379882813	826.1876831054688	47.54653930664063	1432.641723632813	665.6268920898438	955.3502197265625	1277.345092773438	696.4528198242188	159.8003845214844	1412.89208984375	663.514892578125	165.8184204101563	1374.066650390625	687.114990234375	242.590087890625	1431.309814453125	652.4537353515625	244.1428985595703	1390.165771484375	729.4313354492188	574.1721801757813	1425.34375	669.5816650390625	574.9088745117188	1382.2099609375	725.43017578125	683.9479370117188	1426.634643554688	669.6336669921875	684.9510498046875	1384.7998046875	777.8862915039063	407.8401184082031	1367.19873046875	
114	0.7533333333333334	711.1062622070313	96.04692840576172	1045.824462890625	728.5707397460938	101.0507049560547	1125.408569335938	809.7647705078125	920.8553466796875	1084.056640625	740.55419921875	835.0563354492188	1043.83740234375	637.1824340820313	33.12605667114258	1083.911499023438	669.2579345703125	55.15165710449219	1040.880493164063	649.5263061523438	81.83750152587891	1086.389404296875	701.4135131835938	417.8060913085938	1036.118286132813	753.5975341796875	993.7086181640625	1060.959716796875	713.3306274414063	475.0324401855469	1046.298583984375	705.0532836914063	462.5666809082031	1167.519775390625	852.9791259765625	52.73878479003906	1128.144287109375	860.763671875	65.22940063476563	1082.529418945313	821.667724609375	48.47274017333984	1017.617553710938	656.2789916992188	953.19580078125	1179.352294921875	695.447021484375	160.7120056152344	1035.734252929688	660.1236572265625	154.8043670654297	1078.345825195313	671.46484375	237.2292327880859	1028.285522460938	640.8853149414063	233.2904510498047	1072.80517578125	703.0956420898438	587.0988159179688	1027.517333984375	651.2218017578125	585.5753784179688	1076.970336914063	698.4691772460938	697.17626953125	1030.069213867188	651.716552734375	696.1183471679688	1079.96923828125	760.253662109375	396.9801330566406	1087.735717773438	708.9215698242188	97.01649475097656	1405.307006835938	732.7311401367188	111.0744934082031	1328.543090820313	827.6111450195313	928.9714965820313	1351.524047851563	759.1431884765625	842.1768188476563	1403.3408203125	640.0046997070313	37.56642150878906	1369.750854492188	672.655029296875	55.15321731567383	1410.906982421875	649.1747436523438	82.75331115722656	1369.711547851563	725.4646606445313	427.7197875976563	1418.818359375	772.9229125976563	1006.506042480469	1373.207641601563	724.21728515625	488.4776000976563	1409.845336914063	719.4454956054688	471.0819396972656	1290.08740234375	852.888916015625	51.62081909179688	1316.763427734375	860.3095092773438	67.68109130859375	1366.868896484375	826.1787719726563	47.54900360107422	1432.643188476563	665.6502685546875	955.3486328125	1277.31201171875	696.4671630859375	159.8061218261719	1412.888793945313	663.5291748046875	165.8223571777344	1374.064575195313	687.1387939453125	242.5983734130859	1431.30224609375	652.4676513671875	244.1529693603516	1390.157470703125	729.4696044921875	574.1822509765625	1425.307861328125	669.6181640625	574.9046630859375	1382.182373046875	725.462646484375	683.9515380859375	1426.604370117188	669.673095703125	684.94482421875	1384.77294921875	777.9110717773438	407.8328552246094	1367.1689453125	
115	0.76	711.095947265625	96.04367065429688	1045.826904296875	728.5693359375	101.052490234375	1125.402709960938	809.7777709960938	920.8544921875	1084.020263671875	740.5696411132813	835.055419921875	1043.806640625	637.1821899414063	33.11753082275391	1083.91943359375	669.2599487304688	55.1483268737793	1040.879150390625	649.5239868164063	81.84124755859375	1086.37255859375	701.4320068359375	417.794189453125	1036.102172851563	753.5921020507813	993.7095947265625	1060.93408203125	713.3612670898438	475.0330810546875	1046.267700195313	705.0836791992188	462.5779113769531	1167.500122070313	852.9815063476563	52.73938369750977	1128.145751953125	860.7742309570313	65.22792816162109	1082.537109375	821.6658935546875	48.46781539916992	1017.616333007813	656.2994384765625	953.1981201171875	1179.324584960938	695.4435424804688	160.7031097412109	1035.735229492188	660.1265258789063	154.8058471679688	1078.34033203125	671.4708251953125	237.2249145507813	1028.290649414063	640.8988037109375	233.2932434082031	1072.791381835938	703.125244140625	587.1001586914063	1027.4873046875	651.2421875	585.582275390625	1076.93359375	698.4879760742188	697.1814575195313	1030.048583984375	651.7569580078125	696.1124877929688	1079.937622070313	760.26708984375	396.975830078125	1087.707885742188	708.9242553710938	97.00364685058594	1405.291015625	732.725830078125	111.072135925293	1328.533935546875	827.6465454101563	928.9602661132813	1351.4755859375	759.1862182617188	842.1680297851563	1403.29638671875	640.0099487304688	37.57070922851563	1369.74267578125	672.6588134765625	55.15789794921875	1410.900756835938	649.1801147460938	82.75114440917969	1369.706176757813	725.478515625	427.6329040527344	1418.67578125	772.9487915039063	1006.487426757813	1373.177734375	724.2547607421875	488.4775085449219	1409.813354492188	719.476806640625	471.0809631347656	1290.051635742188	852.8854370117188	51.60396575927734	1316.767944335938	860.3087768554688	67.67354583740234	1366.865478515625	826.174560546875	47.54141998291016	1432.65283203125	665.67626953125	955.3500366210938	1277.276733398438	696.482421875	159.7979431152344	1412.866088867188	663.533447265625	165.828125	1374.070922851563	687.1597290039063	242.6007080078125	1431.291137695313	652.4829711914063	244.1623382568359	1390.160888671875	729.50634765625	574.1727294921875	1425.279174804688	669.6495971679688	574.9059448242188	1382.15478515625	725.5037231445313	683.9450073242188	1426.566284179688	669.7083740234375	684.9520263671875	1384.7373046875	777.9400634765625	407.8134765625	1367.14013671875	
116	0.7666666666666667	711.0932006835938	96.04380035400391	1045.8193359375	728.5593872070313	101.0578002929688	1125.410400390625	809.7731323242188	920.856689453125	1083.966186523438	740.5829467773438	835.0498657226563	1043.781127929688	637.1817626953125	33.11933135986328	1083.913940429688	669.2601928710938	55.15222549438477	1040.870361328125	649.5306396484375	81.83617401123047	1086.386352539063	701.4359741210938	417.7994689941406	1036.08203125	753.5768432617188	993.70654296875	1060.885864257813	713.3775024414063	475.0297241210938	1046.252685546875	705.1158447265625	462.5775451660156	1167.481811523438	852.9829711914063	52.74881744384766	1128.157592773438	860.7667846679688	65.228759765625	1082.541259765625	821.6654663085938	48.46694564819336	1017.616455078125	656.314453125	953.189697265625	1179.300048828125	695.4500732421875	160.701904296875	1035.734985351563	660.13916015625	154.8060455322266	1078.348022460938	671.4676513671875	237.2290191650391	1028.281372070313	640.90283203125	233.2989959716797	1072.79638671875	703.1474609375	587.0993041992188	1027.457641601563	651.2723999023438	585.5703125	1076.920166015625	698.5011596679688	697.1862182617188	1030.019897460938	651.773193359375	696.1207885742188	1079.925048828125	760.2742919921875	396.9687194824219	1087.695556640625	708.923095703125	97.00215911865234	1405.293090820313	732.7200317382813	111.07470703125	1328.540649414063	827.6868286132813	928.9580078125	1351.433715820313	759.2297973632813	842.1683349609375	1403.258911132813	640.01318359375	37.56571197509766	1369.747680664063	672.6605834960938	55.15398025512695	1410.899169921875	649.1887817382813	82.75616455078125	1369.70361328125	725.51416015625	427.7198791503906	1418.772705078125	772.9749755859375	1006.47265625	1373.159790039063	724.289306640625	488.470947265625	1409.794921875	719.5018310546875	471.0802917480469	1290.03173828125	852.8955688476563	51.60904312133789	1316.765625	860.302978515625	67.67564392089844	1366.86865234375	826.1814575195313	47.54230117797852	1432.63720703125	665.703125	955.3463134765625	1277.233154296875	696.5025634765625	159.7978210449219	1412.880004882813	663.5473022460938	165.8257141113281	1374.058959960938	687.1779174804688	242.6004791259766	1431.289306640625	652.496826171875	244.1603240966797	1390.152709960938	729.5419311523438	574.1849365234375	1425.2607421875	669.689453125	574.9113159179688	1382.124145507813	725.5426025390625	683.9540405273438	1426.545043945313	669.7505493164063	684.9498291015625	1384.705200195313	777.9690551757813	407.8268737792969	1367.12548828125	
